<svg width="560" height="200" xmlns="http://www.w3.org/2000/svg">
  <defs>
    <linearGradient id="bg" x1="0%" y1="0%" x2="100%" y2="100%">
      <stop offset="0%" stop-color="#001a1f"/>
      <stop offset="100%" stop-color="#002830"/>
    </linearGradient>
    <linearGradient id="teal" x1="0%" y1="0%" x2="100%" y2="0%">
      <stop offset="0%" stop-color="#00b8a9"/>
      <stop offset="100%" stop-color="#00d4c0"/>
    </linearGradient>
  </defs>
  <rect width="560" height="200" fill="url(#bg)"/>
  <!-- DNA dot pattern -->
  <circle cx="450" cy="40" r="3" fill="#00b8a9" opacity="0.6"/>
  <circle cx="470" cy="60" r="3" fill="#00b8a9" opacity="0.5"/>
  <circle cx="450" cy="80" r="3" fill="#00b8a9" opacity="0.6"/>
  <circle cx="470" cy="100" r="3" fill="#00b8a9" opacity="0.5"/>
  <circle cx="450" cy="120" r="3" fill="#00b8a9" opacity="0.6"/>
  <circle cx="470" cy="140" r="3" fill="#00b8a9" opacity="0.5"/>
  <circle cx="450" cy="160" r="3" fill="#00b8a9" opacity="0.4"/>
  <circle cx="510" cy="40" r="3" fill="#00b8a9" opacity="0.4"/>
  <circle cx="490" cy="60" r="3" fill="#00b8a9" opacity="0.3"/>
  <circle cx="510" cy="80" r="3" fill="#00b8a9" opacity="0.4"/>
  <circle cx="490" cy="100" r="3" fill="#00b8a9" opacity="0.3"/>
  <circle cx="510" cy="120" r="3" fill="#00b8a9" opacity="0.4"/>
  <circle cx="490" cy="140" r="3" fill="#00b8a9" opacity="0.3"/>
  <line x1="450" y1="40" x2="510" y2="40" stroke="#00b8a9" stroke-width="0.5" opacity="0.2"/>
  <line x1="450" y1="80" x2="510" y2="80" stroke="#00b8a9" stroke-width="0.5" opacity="0.2"/>
  <line x1="450" y1="120" x2="510" y2="120" stroke="#00b8a9" stroke-width="0.5" opacity="0.2"/>
  <line x1="450" y1="160" x2="510" y2="160" stroke="#00b8a9" stroke-width="0.5" opacity="0.15"/>
  <rect x="50" y="125" width="260" height="1.5" fill="url(#teal)" opacity="0.5" rx="1"/>
  <text x="50" y="108" font-family="Arial, sans-serif" font-size="50" font-weight="700" fill="white" letter-spacing="1">TEST<tspan fill="url(#teal)">YOU</tspan></text>
  <text x="51" y="122" font-family="Arial, sans-serif" font-size="10" fill="#00b8a9" letter-spacing="4" opacity="0.8">GENÉTICA · SAÚDE · DNA</text>
</svg>
